<svg width="33" height="40" viewBox="0 0 33 40" fill="none" xmlns="http://www.w3.org/2000/svg">
<path d="M22.9433 0.507812H15.8552V8.66259H22.9433V0.507812Z" fill="#2A3647"/>
<path d="M15.8558 15.2949H22.9439V26.7959C22.9763 29.5634 22.1887 32.278 20.6812 34.5947C19.1927 36.8457 16.3193 39.5237 11.0032 39.5237C5.21273 39.5237 1.8377 36.7854 0.0166016 35.2848L4.48756 29.7698C6.26504 31.2211 7.9771 32.415 11.0304 32.415C13.3422 32.415 14.2637 31.473 14.8035 30.6515C15.5373 29.5105 15.9169 28.1761 15.894 26.8179L15.8558 15.2949Z" fill="#2A3647"/>
<path d="M12.2406 10.1467H5.15247V17.2664H12.2406V10.1467Z" fill="#29ABE2"/>
<path d="M26.6573 36.1826C26.6573 37.6997 25.8885 38.5157 24.8144 38.5157C23.7403 38.5157 23.0369 37.5463 23.0369 36.2593C23.0369 34.9723 23.7621 33.9536 24.8744 33.9536C25.9867 33.9536 26.6573 34.9558 26.6573 36.1826ZM23.8602 36.2429C23.8602 37.1575 24.2255 37.8311 24.8526 37.8311C25.4796 37.8311 25.834 37.1191 25.834 36.1881C25.834 35.3721 25.5069 34.6053 24.8526 34.6053C24.1983 34.6053 23.8602 35.3447 23.8602 36.2429Z" fill="#2A3647"/>
<path d="M28.0641 34.0198V38.4449H27.2789V34.0198H28.0641Z" fill="#2A3647"/>
<path d="M28.9141 38.4449V34.0198H29.7864L30.7243 35.8435C30.9657 36.3204 31.1805 36.8104 31.3676 37.3113C31.3186 36.7636 31.2968 36.1338 31.2968 35.4328V34.0198H32.0165V38.4449H31.2041L30.2554 36.5829C30.0042 36.0937 29.7803 35.5909 29.5847 35.0768C29.5847 35.6244 29.6229 36.2433 29.6229 37.0046V38.4395L28.9141 38.4449Z" fill="#2A3647"/>
</svg>
