<svg width="33" height="33" viewBox="0 0 33 33" fill="none" xmlns="http://www.w3.org/2000/svg">
<mask id="mask0_89728_5417" style="mask-type:alpha" maskUnits="userSpaceOnUse" x="0" y="0" width="33" height="33">
<rect x="0.5" y="0.5" width="32" height="32" fill="#D9D9D9"/>
</mask>
<g mask="url(#mask0_89728_5417)">
<path d="M25.8294 19.1667C25.5134 19.1667 25.2499 19.0602 25.0388 18.8473C24.8277 18.6343 24.7222 18.3704 24.7222 18.0556V14.9445H21.611C21.2962 14.9445 21.0323 14.8376 20.8194 14.6239C20.6064 14.4102 20.4999 14.1454 20.4999 13.8295C20.4999 13.5136 20.6064 13.2501 20.8194 13.0389C21.0323 12.8278 21.2962 12.7223 21.611 12.7223H24.7222V9.61115C24.7222 9.29635 24.829 9.03246 25.0427 8.81948C25.2564 8.60653 25.5212 8.50005 25.8372 8.50005C26.1531 8.50005 26.4166 8.60653 26.6277 8.81948C26.8388 9.03246 26.9444 9.29635 26.9444 9.61115V12.7223H30.0555C30.3703 12.7223 30.6342 12.8291 30.8472 13.0428C31.0601 13.2566 31.1666 13.5214 31.1666 13.8373C31.1666 14.1532 31.0601 14.4167 30.8472 14.6278C30.6342 14.8389 30.3703 14.9445 30.0555 14.9445H26.9444V18.0556C26.9444 18.3704 26.8375 18.6343 26.6238 18.8473C26.4101 19.0602 26.1453 19.1667 25.8294 19.1667ZM12.4999 16.4778C11.0333 16.4778 9.81473 15.9926 8.84435 15.0223C7.874 14.0519 7.38882 12.8334 7.38882 11.3667C7.38882 9.90005 7.874 8.68154 8.84435 7.71118C9.81473 6.7408 11.0333 6.25562 12.4999 6.25562C13.9666 6.25562 15.1851 6.7408 16.1555 7.71118C17.1258 8.68154 17.611 9.90005 17.611 11.3667C17.611 12.8334 17.1258 14.0519 16.1555 15.0223C15.1851 15.9926 13.9666 16.4778 12.4999 16.4778ZM2.94435 27.1667C2.62955 27.1667 2.36566 27.0602 2.15269 26.8473C1.93973 26.6343 1.83325 26.3704 1.83325 26.0556V23.8334C1.83325 23.063 2.0314 22.3612 2.42769 21.7279C2.824 21.0945 3.3666 20.6186 4.05549 20.3C5.62586 19.5815 7.08022 19.0649 8.41855 18.75C9.75691 18.4352 11.1162 18.2779 12.4963 18.2779C13.8765 18.2779 15.237 18.4352 16.5777 18.75C17.9184 19.0649 19.3666 19.5815 20.9222 20.3C21.611 20.6334 22.1573 21.113 22.561 21.7389C22.9647 22.3649 23.1666 23.063 23.1666 23.8334V26.0556C23.1666 26.3704 23.0601 26.6343 22.8472 26.8473C22.6342 27.0602 22.3703 27.1667 22.0555 27.1667H2.94435ZM4.05545 24.9445H20.9444V23.8334C20.9444 23.5149 20.8648 23.2149 20.7055 22.9334C20.5462 22.6519 20.3073 22.4408 19.9888 22.3C18.5518 21.5963 17.2629 21.1204 16.1222 20.8723C14.9814 20.6241 13.774 20.5 12.4999 20.5C11.2259 20.5 10.0184 20.6278 8.87769 20.8834C7.73695 21.1389 6.44066 21.6112 4.98882 22.3C4.69991 22.4408 4.47212 22.6519 4.30545 22.9334C4.13879 23.2149 4.05545 23.5149 4.05545 23.8334V24.9445ZM12.4999 14.2556C13.3221 14.2556 14.0092 13.9797 14.561 13.4278C15.1129 12.876 15.3888 12.1889 15.3888 11.3667C15.3888 10.5445 15.1129 9.85746 14.561 9.30562C14.0092 8.75375 13.3221 8.47782 12.4999 8.47782C11.6777 8.47782 10.9907 8.75375 10.4388 9.30562C9.88695 9.85746 9.61102 10.5445 9.61102 11.3667C9.61102 12.1889 9.88695 12.876 10.4388 13.4278C10.9907 13.9797 11.6777 14.2556 12.4999 14.2556Z" fill="white"/>
</g>
</svg>
