<svg width="57" height="67" viewBox="0 0 57 67" fill="none" xmlns="http://www.w3.org/2000/svg">
<path d="M40.7397 0H28.4242V13.8957H40.7397V0Z" fill="white"/>
<path d="M28.4243 25.197H40.7397V44.7947C40.796 49.5105 39.4275 54.1362 36.8083 58.0839C34.222 61.9194 29.2295 66.4829 19.9929 66.4829C9.93211 66.4829 4.06806 61.8167 0.903931 59.2597L8.67215 49.8621C11.7605 52.3352 14.7351 54.3696 20.0403 54.3696C24.057 54.3696 25.658 52.7645 26.5959 51.3646C27.8709 49.4203 28.5304 47.1465 28.4906 44.8321L28.4243 25.197Z" fill="white"/>
<path d="M22.1434 16.4248H9.82792V28.5567H22.1434V16.4248Z" fill="#29ABE2"/>
<path d="M47.1911 60.7904C47.1911 63.3754 45.8554 64.7659 43.9891 64.7659C42.1228 64.7659 40.9008 63.1141 40.9008 60.9211C40.9008 58.728 42.1607 56.9922 44.0933 56.9922C46.0259 56.9922 47.1911 58.7 47.1911 60.7904ZM42.3312 60.8931C42.3312 62.4516 42.966 63.5994 44.0554 63.5994C45.1449 63.5994 45.7606 62.3862 45.7606 60.7997C45.7606 59.4092 45.1922 58.1027 44.0554 58.1027C42.9186 58.1027 42.3312 59.3626 42.3312 60.8931Z" fill="white"/>
<path d="M49.6353 57.104V64.6445H48.2711V57.104H49.6353Z" fill="white"/>
<path d="M51.1131 64.6445V57.104H52.6289L54.2583 60.2116C54.6778 61.0242 55.051 61.8592 55.3762 62.7127C55.2909 61.7795 55.253 60.7063 55.253 59.5117V57.104H56.5035V64.6445H55.092L53.4436 61.4715C53.0072 60.638 52.6182 59.7812 52.2784 58.9051C52.2784 59.8384 52.3447 60.8929 52.3447 62.1901V64.6351L51.1131 64.6445Z" fill="white"/>
</svg>
