<?xml version="1.0" encoding="UTF-8" standalone="no"?><!DOCTYPE svg PUBLIC "-//W3C//DTD SVG 1.1//EN" "http://www.w3.org/Graphics/SVG/1.1/DTD/svg11.dtd"><svg width="100%" height="100%" viewBox="0 0 100 100" version="1.1" xmlns="http://www.w3.org/2000/svg" xmlns:xlink="http://www.w3.org/1999/xlink" xml:space="preserve" xmlns:serif="http://www.serif.com/" style="fill-rule:evenodd;clip-rule:evenodd;stroke-linejoin:round;stroke-miterlimit:2;"><g><path d="M29.167,87.5c-2.292,0 -4.254,-0.816 -5.886,-2.448c-1.632,-1.632 -2.448,-3.594 -2.448,-5.885l0,-54.167c-1.18,0 -2.17,-0.399 -2.968,-1.198c-0.799,-0.799 -1.198,-1.788 -1.198,-2.969c-0,-1.18 0.399,-2.17 1.198,-2.968c0.798,-0.799 1.788,-1.198 2.968,-1.198l16.667,-0c0,-1.181 0.399,-2.17 1.198,-2.969c0.799,-0.799 1.788,-1.198 2.969,-1.198l16.666,0c1.181,0 2.17,0.399 2.969,1.198c0.799,0.799 1.198,1.788 1.198,2.969l16.667,-0c1.18,-0 2.17,0.399 2.968,1.198c0.799,0.798 1.198,1.788 1.198,2.968c0,1.181 -0.399,2.17 -1.198,2.969c-0.798,0.799 -1.788,1.198 -2.968,1.198l-0,54.167c-0,2.291 -0.816,4.253 -2.448,5.885c-1.632,1.632 -3.594,2.448 -5.886,2.448l-41.666,0Zm-0,-62.5l-0,54.167l41.666,-0l0,-54.167l-41.666,0Zm8.333,41.667c-0,1.18 0.399,2.17 1.198,2.968c0.799,0.799 1.788,1.198 2.969,1.198c1.18,0 2.17,-0.399 2.968,-1.198c0.799,-0.798 1.198,-1.788 1.198,-2.968l0,-29.167c0,-1.181 -0.399,-2.17 -1.198,-2.969c-0.798,-0.798 -1.788,-1.198 -2.968,-1.198c-1.181,0 -2.17,0.4 -2.969,1.198c-0.799,0.799 -1.198,1.788 -1.198,2.969l0,29.167Zm16.667,-0c-0,1.18 0.399,2.17 1.198,2.968c0.798,0.799 1.788,1.198 2.968,1.198c1.181,0 2.17,-0.399 2.969,-1.198c0.799,-0.798 1.198,-1.788 1.198,-2.968l0,-29.167c0,-1.181 -0.399,-2.17 -1.198,-2.969c-0.799,-0.798 -1.788,-1.198 -2.969,-1.198c-1.18,0 -2.17,0.4 -2.968,1.198c-0.799,0.799 -1.198,1.788 -1.198,2.969l-0,29.167Z" style="fill:#29abe2;fill-rule:nonzero;"/></g></svg>