<?xml version="1.0" encoding="UTF-8" standalone="no"?><!DOCTYPE svg PUBLIC "-//W3C//DTD SVG 1.1//EN" "http://www.w3.org/Graphics/SVG/1.1/DTD/svg11.dtd"><svg width="100%" height="100%" viewBox="0 0 100 100" version="1.1" xmlns="http://www.w3.org/2000/svg" xmlns:xlink="http://www.w3.org/1999/xlink" xml:space="preserve" xmlns:serif="http://www.serif.com/" style="fill-rule:evenodd;clip-rule:evenodd;stroke-linejoin:round;stroke-miterlimit:2;"><g><path d="M20.833,79.167l5.834,-0l35.937,-35.938l-5.833,-5.833l-35.938,35.937l0,5.834Zm59.584,-41.979l-17.709,-17.501l5.834,-5.833c1.597,-1.597 3.559,-2.396 5.885,-2.396c2.326,0 4.288,0.799 5.885,2.396l5.834,5.833c1.597,1.598 2.43,3.525 2.5,5.782c0.069,2.257 -0.695,4.184 -2.292,5.781l-5.937,5.938Zm-6.042,6.145l-44.167,44.167l-17.708,0l-0,-17.708l44.167,-44.167l17.708,17.708Z" style="fill:#29abe2;fill-rule:nonzero;"/></g></svg>