<svg width="24" height="26" viewBox="0 0 24 26" fill="none" xmlns="http://www.w3.org/2000/svg">
<path d="M12 20.4829C10.8333 20.4829 9.71875 20.6652 8.65625 21.0298C7.59375 21.3944 6.625 21.9412 5.75 22.6704V22.9829H18.25V22.6704C17.375 21.9412 16.4062 21.3944 15.3438 21.0298C14.2812 20.6652 13.1667 20.4829 12 20.4829ZM3.25 21.5454C4.375 20.4412 5.68229 19.5715 7.17188 18.936C8.66146 18.3006 10.2708 17.9829 12 17.9829C13.7292 17.9829 15.3385 18.3006 16.8281 18.936C18.3177 19.5715 19.625 20.4412 20.75 21.5454V5.48291H3.25V21.5454ZM12 15.4829C10.7917 15.4829 9.76042 15.0558 8.90625 14.2017C8.05208 13.3475 7.625 12.3162 7.625 11.1079C7.625 9.89958 8.05208 8.86833 8.90625 8.01416C9.76042 7.15999 10.7917 6.73291 12 6.73291C13.2083 6.73291 14.2396 7.15999 15.0938 8.01416C15.9479 8.86833 16.375 9.89958 16.375 11.1079C16.375 12.3162 15.9479 13.3475 15.0938 14.2017C14.2396 15.0558 13.2083 15.4829 12 15.4829ZM12 12.9829C12.5208 12.9829 12.9635 12.8006 13.3281 12.436C13.6927 12.0715 13.875 11.6287 13.875 11.1079C13.875 10.5871 13.6927 10.1444 13.3281 9.77979C12.9635 9.4152 12.5208 9.23291 12 9.23291C11.4792 9.23291 11.0365 9.4152 10.6719 9.77979C10.3073 10.1444 10.125 10.5871 10.125 11.1079C10.125 11.6287 10.3073 12.0715 10.6719 12.436C11.0365 12.8006 11.4792 12.9829 12 12.9829ZM3.25 25.4829C2.5625 25.4829 1.97396 25.2381 1.48438 24.7485C0.994792 24.259 0.75 23.6704 0.75 22.9829V5.48291C0.75 4.79541 0.994792 4.20687 1.48438 3.71729C1.97396 3.2277 2.5625 2.98291 3.25 2.98291H4.5V0.48291H7V2.98291H17V0.48291H19.5V2.98291H20.75C21.4375 2.98291 22.026 3.2277 22.5156 3.71729C23.0052 4.20687 23.25 4.79541 23.25 5.48291V22.9829C23.25 23.6704 23.0052 24.259 22.5156 24.7485C22.026 25.2381 21.4375 25.4829 20.75 25.4829H3.25Z" fill="#CDCDCD"/>
</svg>
