<?xml version="1.0" encoding="UTF-8" standalone="no"?><!DOCTYPE svg PUBLIC "-//W3C//DTD SVG 1.1//EN" "http://www.w3.org/Graphics/SVG/1.1/DTD/svg11.dtd"><svg width="100%" height="100%" viewBox="0 0 105 100" version="1.1" xmlns="http://www.w3.org/2000/svg" xmlns:xlink="http://www.w3.org/1999/xlink" xml:space="preserve" xmlns:serif="http://www.serif.com/" style="fill-rule:evenodd;clip-rule:evenodd;stroke-linejoin:round;stroke-miterlimit:2;"><g><path d="M40.83,63.125l35.313,-35.313c0.833,-0.833 1.822,-1.249 2.968,-1.249c1.146,-0 2.136,0.416 2.969,1.25c0.833,0.833 1.25,1.822 1.25,2.968c0,1.146 -0.417,2.136 -1.25,2.969l-38.333,38.333c-0.834,0.834 -1.806,1.25 -2.917,1.25c-1.111,0 -2.083,-0.416 -2.917,-1.25l-17.916,-17.916c-0.834,-0.834 -1.233,-1.823 -1.198,-2.969c0.035,-1.146 0.469,-2.135 1.302,-2.969c0.833,-0.833 1.823,-1.25 2.969,-1.25c1.146,0 2.135,0.417 2.968,1.25l14.792,14.896Z" style="fill:#2a3647;fill-rule:nonzero;"/></g></svg>