<svg width="25" height="24" viewBox="0 0 25 24" fill="none" xmlns="http://www.w3.org/2000/svg">
<mask id="mask0_89289_6098" style="mask-type:alpha" maskUnits="userSpaceOnUse" x="0" y="0" width="25" height="24">
<rect x="0.248535" width="24" height="24" fill="#D9D9D9"/>
</mask>
<g mask="url(#mask0_89289_6098)">
<path d="M9.79923 15.15L18.2742 6.675C18.4742 6.475 18.7117 6.375 18.9867 6.375C19.2617 6.375 19.4992 6.475 19.6992 6.675C19.8992 6.875 19.9992 7.1125 19.9992 7.3875C19.9992 7.6625 19.8992 7.9 19.6992 8.1L10.4992 17.3C10.2992 17.5 10.0659 17.6 9.79923 17.6C9.53256 17.6 9.29923 17.5 9.09923 17.3L4.79923 13C4.59923 12.8 4.5034 12.5625 4.51173 12.2875C4.52006 12.0125 4.62423 11.775 4.82423 11.575C5.02423 11.375 5.26173 11.275 5.53673 11.275C5.81173 11.275 6.04923 11.375 6.24923 11.575L9.79923 15.15Z" fill="white"/>
</g>
</svg>
