<svg width="30" height="26" viewBox="0 0 30 26" fill="none" xmlns="http://www.w3.org/2000/svg">
<path d="M22.9546 2.75564L22.9546 23.21C22.954 23.8125 22.7143 24.3903 22.2882 24.8163C21.8622 25.2424 21.2844 25.4821 20.6819 25.4827L16.1365 25.4827C15.5339 25.4821 14.9562 25.2424 14.5301 24.8163C14.104 24.3903 13.8644 23.8125 13.8638 23.21L13.8638 2.75564C13.8644 2.15306 14.104 1.57534 14.5301 1.14926C14.9562 0.723172 15.5339 0.483533 16.1365 0.48293L20.6819 0.48293C21.2844 0.483533 21.8622 0.723172 22.2882 1.14926C22.7143 1.57534 22.954 2.15306 22.9546 2.75564ZM16.1365 23.21L20.6819 23.21L20.6819 2.75564L16.1365 2.75564L16.1365 23.21ZM16.1365 2.75564L16.1365 23.21C16.1359 23.8125 15.8962 24.3902 15.4701 24.8163C15.0441 25.2424 14.4663 25.482 13.8638 25.4826L9.31835 25.4826C8.71578 25.482 8.13806 25.2424 7.71197 24.8163C7.28589 24.3902 7.04625 23.8125 7.04565 23.2099L7.04565 2.75561C7.04625 2.15304 7.28589 1.57532 7.71197 1.14923C8.13806 0.723148 8.71578 0.483513 9.31835 0.48291L13.8638 0.48291C14.4663 0.483512 15.0441 0.723148 15.4701 1.14923C15.8962 1.57532 16.1359 2.15306 16.1365 2.75564ZM9.31835 23.2099L13.8638 23.21L13.8638 2.75564L9.31835 2.75561L9.31835 23.2099ZM9.31835 2.75561L9.31835 23.2099C9.31775 23.8125 9.07811 24.3902 8.65203 24.8163C8.22594 25.2424 7.64822 25.482 7.04565 25.4826L2.50024 25.4826C1.89767 25.482 1.31995 25.2424 0.893863 24.8163C0.467779 24.3902 0.228141 23.8125 0.227539 23.2099L0.227538 2.75561C0.22814 2.15304 0.467778 1.57532 0.893862 1.14923C1.31995 0.723148 1.89767 0.483513 2.50024 0.48291L7.04565 0.48291C7.64822 0.483513 8.22594 0.723148 8.65203 1.14923C9.07811 1.57532 9.31775 2.15304 9.31835 2.75561ZM2.50024 23.2099L7.04565 23.2099L7.04565 2.75561L2.50024 2.75561L2.50024 23.2099Z" fill="#CDCDCD"/>
<path d="M29.7727 2.75589L29.7727 23.2102C29.7721 23.8128 29.5324 24.3905 29.1064 24.8166C28.6803 25.2427 28.1026 25.4823 27.5 25.4829L22.9546 25.4829C22.352 25.4823 21.7743 25.2427 21.3482 24.8166C20.9221 24.3905 20.6825 23.8125 20.6819 23.21L20.6819 2.75564C20.6825 2.15306 20.9221 1.57559 21.3482 1.14951C21.7743 0.723424 22.352 0.483787 22.9546 0.483184L27.5 0.483184C28.1026 0.483786 28.6803 0.723424 29.1064 1.14951C29.5324 1.57559 29.7721 2.15331 29.7727 2.75589ZM22.9546 23.21L27.5 23.2102L27.5 2.75589L22.9546 2.75564L22.9546 23.21Z" fill="#CDCDCD"/>
</svg>
