<svg width="26" height="26" viewBox="0 0 26 26" fill="none" xmlns="http://www.w3.org/2000/svg">
<path d="M23.2258 0.48291H2.77126H2.49853C1.39397 0.48291 0.498535 1.37864 0.498535 2.48321C0.498535 2.663 0.498535 2.79037 0.498535 2.82288V23.2774V23.4829C0.498535 24.5875 1.39426 25.4829 2.49883 25.4829C2.64231 25.4829 2.74255 25.4829 2.77126 25.4829H23.2258C23.2545 25.4829 23.3548 25.4829 23.4982 25.4829C24.6028 25.4829 25.4985 24.587 25.4985 23.4824C25.4985 23.3756 25.4985 23.3017 25.4985 23.2774V2.82285C25.4985 2.79035 25.4985 2.66299 25.4985 2.48321C25.4985 1.37864 24.6028 0.48291 23.4982 0.48291C23.3548 0.48291 23.2545 0.48291 23.2258 0.48291ZM15.2713 23.2774H2.77126V14.1865H15.2713V23.2774ZM15.2713 11.9138H2.77126V2.82288L15.2713 2.82285V11.9138ZM23.2258 23.2774H17.544V2.82288H23.2258V23.2774Z" fill="#CDCDCD"/>
</svg>
